<svg width="431" height="296" viewBox="0 0 431 296" fill="none" xmlns="http://www.w3.org/2000/svg">
<g filter="url(#filter0_dd_117_264)">
<rect x="112.994" y="215" width="307" height="16" fill="white"/>
<rect x="116.994" y="219" width="299" height="8" stroke="white" stroke-width="8"/>
</g>
<rect x="351.994" y="231" width="8" height="57" transform="rotate(-90 351.994 231)" fill="#090909"/>
<rect x="396.994" y="229" width="4" height="10" transform="rotate(-90 396.994 229)" fill="#19B900"/>
<path d="M252.192 103.728C251.911 101.923 253.999 100.718 255.422 101.863L293.891 132.819C295.215 133.885 294.691 136.012 293.023 136.34L275.869 139.714C275.434 139.8 275.04 140.027 274.748 140.361L263.248 153.53C262.13 154.81 260.026 154.201 259.765 152.521L252.192 103.728Z" fill="white"/>
<path d="M71.9937 47.6206L2.50063 29" stroke="white" stroke-width="5" stroke-linecap="round"/>
<path d="M71.9937 62L2.99365 62" stroke="white" stroke-width="5" stroke-linecap="round"/>
<path d="M71.9937 76L3.98672 94.2224" stroke="white" stroke-width="5" stroke-linecap="round"/>
<line y1="-2.5" x2="43.566" y2="-2.5" transform="matrix(0.849285 0.527934 0.527934 -0.849285 382.994 238)" stroke="white" stroke-width="5"/>
<line x1="151.313" y1="240.123" x2="114.313" y2="263.123" stroke="white" stroke-width="5"/>
<line x1="115.494" y1="296" x2="115.494" y2="261" stroke="white" stroke-width="5"/>
<line x1="186.313" y1="240.123" x2="149.313" y2="263.123" stroke="white" stroke-width="5"/>
<line x1="150.494" y1="296" x2="150.494" y2="261" stroke="white" stroke-width="5"/>
<line y1="-2.5" x2="35" y2="-2.5" transform="matrix(0 -1 -1 0 414.994 296)" stroke="white" stroke-width="5"/>
<line y1="-2.5" x2="43.566" y2="-2.5" transform="matrix(0.849285 0.527934 0.527934 -0.849285 347.994 238)" stroke="white" stroke-width="5"/>
<line y1="-2.5" x2="35" y2="-2.5" transform="matrix(0 -1 -1 0 379.994 296)" stroke="white" stroke-width="5"/>
<rect x="79.4937" y="78.5" width="32" height="25" transform="rotate(-90 79.4937 78.5)" fill="white" stroke="#0B0B0B" stroke-width="3"/>
<rect x="82.9937" y="51" width="5" height="24" fill="black"/>
<rect x="107.494" y="8.5" width="315" height="227" rx="14.5" stroke="white" stroke-width="17"/>
<path d="M133.994 85V33" stroke="white" stroke-width="7" stroke-linecap="round"/>
<path d="M186.994 32L133.994 32" stroke="white" stroke-width="7" stroke-linecap="round"/>
<defs>
<filter id="filter0_dd_117_264" x="108.994" y="215" width="315" height="24" filterUnits="userSpaceOnUse" color-interpolation-filters="sRGB">
<feFlood flood-opacity="0" result="BackgroundImageFix"/>
<feColorMatrix in="SourceAlpha" type="matrix" values="0 0 0 0 0 0 0 0 0 0 0 0 0 0 0 0 0 0 127 0" result="hardAlpha"/>
<feOffset dy="4"/>
<feGaussianBlur stdDeviation="2"/>
<feComposite in2="hardAlpha" operator="out"/>
<feColorMatrix type="matrix" values="0 0 0 0 0 0 0 0 0 0 0 0 0 0 0 0 0 0 0.25 0"/>
<feBlend mode="normal" in2="BackgroundImageFix" result="effect1_dropShadow_117_264"/>
<feColorMatrix in="SourceAlpha" type="matrix" values="0 0 0 0 0 0 0 0 0 0 0 0 0 0 0 0 0 0 127 0" result="hardAlpha"/>
<feOffset dy="4"/>
<feGaussianBlur stdDeviation="2"/>
<feComposite in2="hardAlpha" operator="out"/>
<feColorMatrix type="matrix" values="0 0 0 0 0 0 0 0 0 0 0 0 0 0 0 0 0 0 0.25 0"/>
<feBlend mode="normal" in2="effect1_dropShadow_117_264" result="effect2_dropShadow_117_264"/>
<feBlend mode="normal" in="SourceGraphic" in2="effect2_dropShadow_117_264" result="shape"/>
</filter>
</defs>
</svg>
