<?xml version="1.0" standalone="no"?>
<!DOCTYPE svg PUBLIC "-//W3C//DTD SVG 20010904//EN"
 "http://www.w3.org/TR/2001/REC-SVG-20010904/DTD/svg10.dtd">
<svg version="1.0" xmlns="http://www.w3.org/2000/svg"
 width="980.000000pt" height="980.000000pt" viewBox="0 0 980.000000 980.000000"
 preserveAspectRatio="xMidYMid meet">

<g transform="translate(0.000000,980.000000) scale(0.100000,-0.100000)"
fill="#000000" stroke="none">
<path d="M3390 8539 c-82 -37 -101 -65 -125 -185 -59 -288 -243 -655 -465
-930 -62 -76 -283 -303 -365 -375 -278 -243 -677 -450 -990 -514 -94 -19 -132
-39 -162 -85 -53 -78 -53 -153 1 -235 344 -525 451 -1266 285 -1965 -56 -233
-151 -456 -279 -655 -21 -33 -41 -76 -45 -96 -13 -69 31 -166 90 -200 17 -10
66 -25 110 -34 556 -113 1168 -568 1531 -1137 132 -207 248 -481 289 -683 9
-44 24 -93 34 -110 34 -59 131 -103 200 -90 20 4 63 24 96 45 369 237 808 355
1315 353 506 -2 947 -125 1315 -365 72 -48 151 -46 225 5 46 30 66 68 85 162
128 633 697 1328 1356 1654 144 72 333 139 464 166 44 9 93 24 110 34 59 34
103 131 90 200 -4 20 -29 70 -55 112 -198 310 -305 664 -341 1124 -23 308 27
703 127 1003 43 129 143 341 212 448 28 44 53 95 57 115 13 69 -31 166 -90
200 -17 10 -66 25 -110 34 -289 59 -659 243 -931 466 -451 368 -795 891 -889
1354 -9 44 -24 93 -34 110 -35 60 -129 102 -201 90 -21 -4 -71 -28 -112 -54
-311 -201 -653 -305 -1123 -342 -352 -28 -790 39 -1123 170 -88 35 -252 120
-324 168 -103 68 -151 77 -228 42z m585 -590 c268 -87 520 -128 830 -136 401
-10 716 34 1053 148 64 21 117 37 119 35 2 -2 -22 -66 -53 -142 -150 -367
-206 -500 -213 -507 -5 -4 -48 -19 -97 -33 -439 -121 -948 -123 -1399 -7 -55
14 -107 29 -116 34 -9 5 -33 48 -52 96 -20 49 -59 144 -87 213 -90 218 -140
342 -140 347 0 3 8 2 18 -2 9 -3 71 -24 137 -46z m-363 -421 l135 -323 -20
-40 c-141 -280 -471 -660 -759 -876 -142 -106 -341 -229 -371 -229 -22 0 -647
260 -647 269 1 3 54 31 118 63 120 58 303 170 427 261 379 282 727 693 914
1079 31 65 59 118 62 118 3 0 67 -145 141 -322z m2785 194 c262 -536 793
-1065 1333 -1329 65 -32 119 -61 119 -64 1 -5 -101 -49 -541 -233 l-107 -44
-88 50 c-344 197 -690 520 -910 848 -72 107 -143 234 -143 254 0 21 261 646
269 645 3 0 34 -57 68 -127z m-2047 -801 c315 -60 784 -58 1115 4 39 7 72 11
74 9 4 -4 -43 -123 -194 -494 l-51 -125 -45 -9 c-57 -12 -629 -12 -693 0 l-49
9 -123 300 c-68 165 -123 306 -124 313 0 8 7 11 18 8 9 -2 42 -9 72 -15z
m-301 -435 c66 -159 121 -296 121 -304 0 -59 -493 -552 -551 -552 -10 0 -42
11 -72 24 -29 13 -164 69 -300 126 l-247 103 73 50 c278 195 556 469 761 750
43 60 82 105 86 100 4 -4 62 -138 129 -297z m1962 139 c172 -231 422 -476 671
-657 l116 -85 -302 -127 c-166 -69 -308 -126 -317 -126 -53 0 -549 495 -549
548 0 13 230 576 247 605 7 12 12 6 134 -158z m-3883 -776 c174 -71 321 -134
325 -138 28 -28 93 -339 112 -541 24 -237 13 -534 -25 -745 -21 -112 -71 -313
-83 -329 -11 -15 -646 -280 -653 -273 -2 2 14 55 35 119 203 601 203 1320 0
1918 -43 126 -41 120 -34 120 3 0 148 -59 323 -131z m5872 128 c0 -2 -20 -63
-45 -137 -50 -148 -95 -342 -122 -525 -22 -152 -25 -647 -4 -795 25 -185 70
-387 120 -540 28 -85 49 -156 47 -157 -2 -3 -259 100 -546 219 l-104 43 -23
74 c-94 300 -126 748 -78 1106 17 129 57 319 83 400 l17 50 95 39 c52 22 196
81 320 132 214 88 240 98 240 91z m-2865 -47 c-38 -98 -231 -560 -235 -560 -3
0 -19 35 -37 78 -63 153 -203 496 -203 496 0 1 108 1 240 1 209 0 239 -2 235
-15z m-681 -414 c64 -153 115 -280 112 -283 -2 -2 -35 9 -73 25 -37 17 -162
69 -278 117 -115 48 -213 90 -217 94 -4 3 33 42 82 86 49 44 124 119 166 167
43 48 81 84 85 80 4 -4 59 -132 123 -286z m1186 114 c14 -14 58 -55 98 -92
l74 -67 -34 -16 c-106 -48 -541 -225 -545 -221 -2 2 3 21 12 42 15 35 175 416
211 503 l14 33 72 -78 c40 -44 84 -90 98 -104z m-2601 -154 c86 -36 221 -91
301 -124 l145 -59 9 -49 c12 -63 12 -636 0 -692 -9 -43 -9 -44 -99 -82 -207
-87 -515 -210 -525 -210 -7 0 -9 8 -5 19 16 51 47 305 55 453 14 260 -13 639
-56 791 -3 9 0 17 6 17 7 0 83 -29 169 -64z m3897 47 c-58 -207 -77 -714 -37
-1018 12 -88 26 -178 31 -200 5 -22 7 -42 4 -44 -4 -4 -88 29 -499 197 l-120
49 -9 44 c-11 57 -13 561 -3 662 9 79 9 79 45 93 94 38 241 99 392 162 177 75
204 83 196 55z m-2779 -506 c150 -62 273 -114 273 -117 0 -4 -462 -197 -560
-235 -13 -4 -15 26 -15 235 0 209 2 239 15 235 8 -3 138 -56 287 -118z m1788
-117 c0 -132 0 -240 -1 -240 0 0 -121 50 -270 111 -148 61 -277 113 -286 116
-10 3 -18 8 -18 12 0 5 552 238 570 240 3 1 5 -107 5 -239z m-1375 -334 c0 -3
-47 -116 -104 -253 -57 -137 -111 -266 -120 -287 l-16 -38 -67 73 c-86 94
-111 119 -202 202 l-73 67 38 16 c22 9 134 56 249 104 116 49 226 95 245 104
36 16 50 19 50 12z m738 -25 c37 -16 162 -68 277 -116 116 -48 213 -90 217
-94 4 -4 -32 -42 -81 -85 -48 -44 -123 -119 -167 -167 -43 -49 -81 -85 -85
-81 -4 4 -46 102 -94 217 -48 116 -100 240 -116 277 -30 69 -33 78 -23 78 3 0
36 -13 72 -29z m-395 -128 c3 -10 55 -139 116 -287 61 -149 111 -270 111 -270
0 -1 -108 -1 -240 -1 -209 0 -239 2 -235 15 44 116 232 560 236 560 4 0 9 -8
12 -17z m-1209 -300 c158 -127 466 -452 466 -492 0 -9 -57 -151 -126 -317
l-127 -302 -84 116 c-210 288 -478 551 -760 748 l-73 51 302 126 c167 70 309
127 317 127 8 0 46 -26 85 -57z m2793 -69 l302 -127 -72 -50 c-284 -199 -595
-510 -794 -794 l-50 -72 -127 302 c-69 166 -126 308 -126 315 0 57 493 552
549 552 9 0 152 -57 318 -126z m950 -398 c347 -144 403 -169 402 -175 0 -3
-59 -35 -132 -71 -260 -129 -567 -354 -779 -573 -235 -242 -461 -560 -570
-803 -18 -40 -36 -74 -39 -74 -3 0 -67 145 -141 323 l-136 322 35 65 c217 400
614 801 1026 1038 87 49 89 50 123 36 18 -8 114 -47 211 -88z m-4720 27 c394
-233 810 -665 1001 -1038 l20 -40 -136 -323 c-74 -177 -138 -322 -141 -321 -3
0 -34 57 -68 127 -128 263 -333 542 -572 779 -213 212 -509 426 -753 546 -70
34 -127 65 -127 68 -1 9 620 268 644 269 11 0 71 -30 132 -67z m2522 -180 l43
-8 52 -125 c126 -304 199 -490 195 -494 -2 -3 -22 -1 -44 4 -233 55 -700 69
-990 31 -88 -12 -178 -25 -200 -31 -22 -5 -41 -7 -44 -5 -5 5 12 49 149 385
51 124 95 228 98 232 23 24 615 33 741 11z m-79 -928 c163 -16 218 -25 375
-62 184 -43 152 -5 304 -374 72 -177 130 -323 128 -325 -2 -2 -48 12 -103 31
-309 107 -636 157 -1009 154 -334 -2 -623 -49 -919 -149 -66 -22 -121 -38
-123 -37 -3 3 93 243 207 517 28 69 58 130 67 137 15 12 218 63 333 84 210 38
507 47 740 24z"/>
</g>
</svg>
